<svg xmlns="http://www.w3.org/2000/svg" viewBox="0 0 180 180" role="img" aria-labelledby="title desc">
  <title id="title">AI Brain Core</title>
  <desc id="desc">Neural brain icon for the local control panel.</desc>
  <defs>
    <radialGradient id="core" cx="50%" cy="46%" r="62%">
      <stop offset="0%" stop-color="#7dd3fc"/>
      <stop offset="52%" stop-color="#2563eb"/>
      <stop offset="100%" stop-color="#0f172a"/>
    </radialGradient>
    <linearGradient id="line" x1="18" y1="18" x2="162" y2="162">
      <stop offset="0%" stop-color="#a7f3d0"/>
      <stop offset="100%" stop-color="#38bdf8"/>
    </linearGradient>
  </defs>
  <circle cx="90" cy="90" r="78" fill="#020617" stroke="#1e40af" stroke-width="4"/>
  <path d="M53 98c-13-4-22-16-22-31 0-18 14-32 31-32 6 0 12 2 17 5 6-9 17-15 30-15 21 0 38 16 38 36 0 4-1 8-2 12 10 6 16 17 16 29 0 19-15 34-35 34H65c-17 0-30-11-30-25 0-6 2-10 5-14" fill="url(#core)" opacity="0.95"/>
  <path d="M59 76h24l17-20 15 38 14-18h22M53 110h31l14 17 21-45 15 28h21" fill="none" stroke="url(#line)" stroke-width="6" stroke-linecap="round" stroke-linejoin="round"/>
  <circle cx="59" cy="76" r="5" fill="#ecfeff"/>
  <circle cx="100" cy="56" r="5" fill="#ecfeff"/>
  <circle cx="119" cy="82" r="5" fill="#ecfeff"/>
  <circle cx="98" cy="127" r="5" fill="#ecfeff"/>
  <circle cx="134" cy="110" r="5" fill="#ecfeff"/>
</svg>
